<svg width="20" height="20" viewBox="0 0 20 20" fill="none" xmlns="http://www.w3.org/2000/svg">
<path fill-rule="evenodd" clip-rule="evenodd" d="M10 0C10.5523 0 11 0.447715 11 1V12.5858L15.2929 8.29289C15.6834 7.90237 16.3166 7.90237 16.7071 8.29289C17.0976 8.68342 17.0976 9.31658 16.7071 9.70711L10.7071 15.7071C10.3166 16.0976 9.68342 16.0976 9.29289 15.7071L3.29289 9.70711C2.90237 9.31658 2.90237 8.68342 3.29289 8.29289C3.68342 7.90237 4.31658 7.90237 4.70711 8.29289L9 12.5858V1C9 0.447715 9.44771 0 10 0ZM0 19C0 18.4477 0.447715 18 1 18H19C19.5523 18 20 18.4477 20 19C20 19.5523 19.5523 20 19 20H1C0.447715 20 0 19.5523 0 19Z" fill="#3B5881"/>
</svg>
