<svg width="22" height="22" viewBox="0 0 22 22" fill="none" xmlns="http://www.w3.org/2000/svg">
<path fill-rule="evenodd" clip-rule="evenodd" d="M12.0001 1C12.0001 0.447715 12.4478 0 13.0001 0H15C15.5522 0 16 0.447715 16 1C16 1.55228 15.5522 2 15 2H13.0001C12.4478 2 12.0001 1.55228 12.0001 1ZM10.4999 0.989245C10.5074 1.54148 10.0658 1.99522 9.51355 2.0027C8.81968 2.01211 8.63945 2.06138 8.54601 2.10899C8.35785 2.20487 8.20487 2.35785 8.109 2.54601C8.06139 2.63945 8.01211 2.81968 8.00271 3.51355C7.99522 4.06578 7.54148 4.50739 6.98925 4.49991C6.43701 4.49242 5.99541 4.03868 6.00289 3.48645C6.01178 2.83022 6.04067 2.19995 6.32698 1.63803C6.6146 1.07354 7.07354 0.6146 7.63803 0.32698C8.19995 0.0406665 8.83022 0.0117806 9.48645 0.00288749C10.0387 -0.00459623 10.4924 0.437011 10.4999 0.989245ZM17.5001 0.989245C17.5076 0.437011 17.9613 -0.00459623 18.5136 0.00288749C19.1698 0.0117806 19.8001 0.0406665 20.362 0.326981C20.9265 0.614601 21.3854 1.07354 21.673 1.63803C21.9593 2.19995 21.9882 2.83021 21.9971 3.48644C22.0046 4.03867 21.563 4.49241 21.0108 4.4999C20.4585 4.50738 20.0048 4.06577 19.9973 3.51354C19.9879 2.81968 19.9386 2.63945 19.891 2.54601C19.7951 2.35785 19.6422 2.20487 19.454 2.10899C19.3606 2.06138 19.1803 2.01211 18.4865 2.0027C17.9342 1.99522 17.4926 1.54148 17.5001 0.989245ZM21 5.99999C21.5523 5.99999 22 6.44771 22 6.99999V8.99999C22 9.55228 21.5523 9.99999 21 9.99999C20.4477 9.99999 20 9.55228 20 8.99999V6.99999C20 6.44771 20.4477 5.99999 21 5.99999ZM4.16146 6H11.8385C12.3657 5.99998 12.8205 5.99997 13.195 6.03057C13.5904 6.06287 13.9836 6.13419 14.362 6.32698C14.9265 6.6146 15.3854 7.07354 15.673 7.63803C15.8658 8.01641 15.9371 8.40963 15.9694 8.80497C16 9.17955 16 9.63432 16 10.1615V17.8385C16 18.3657 16 18.8204 15.9694 19.195C15.9371 19.5904 15.8658 19.9836 15.673 20.362C15.3854 20.9265 14.9265 21.3854 14.362 21.673C13.9836 21.8658 13.5904 21.9371 13.195 21.9694C12.8205 22 12.3657 22 11.8386 22H4.16144C3.6343 22 3.17954 22 2.80497 21.9694C2.40963 21.9371 2.01641 21.8658 1.63803 21.673C1.07354 21.3854 0.614603 20.9265 0.326982 20.362C0.134188 19.9836 0.0628722 19.5904 0.0305712 19.195C-3.25181e-05 18.8205 -1.70213e-05 18.3657 8.6011e-07 17.8385V10.1615C-1.70213e-05 9.63431 -3.25181e-05 9.17954 0.0305713 8.80497C0.0628723 8.40963 0.134188 8.01641 0.326982 7.63803C0.614602 7.07354 1.07354 6.6146 1.63803 6.32698C2.01641 6.13419 2.40963 6.06287 2.80497 6.03057C3.17955 5.99997 3.63431 5.99998 4.16146 6ZM2.96784 8.02393C2.69617 8.04612 2.59546 8.0838 2.54601 8.10899C2.35785 8.20487 2.20487 8.35785 2.109 8.54601C2.0838 8.59545 2.04612 8.69617 2.02393 8.96784C2.00078 9.25117 2 9.62345 2 10.2V17.8C2 18.3766 2.00078 18.7488 2.02393 19.0322C2.04612 19.3038 2.0838 19.4045 2.109 19.454C2.20487 19.6422 2.35785 19.7951 2.54601 19.891C2.59546 19.9162 2.69617 19.9539 2.96784 19.9761C3.25117 19.9992 3.62345 20 4.2 20H11.8C12.3766 20 12.7488 19.9992 13.0322 19.9761C13.3038 19.9539 13.4045 19.9162 13.454 19.891C13.6422 19.7951 13.7951 19.6422 13.891 19.454C13.9162 19.4045 13.9539 19.3038 13.9761 19.0322C13.9992 18.7488 14 18.3766 14 17.8V10.2C14 9.62345 13.9992 9.25117 13.9761 8.96784C13.9539 8.69617 13.9162 8.59545 13.891 8.54601C13.7951 8.35785 13.6422 8.20487 13.454 8.10899C13.4045 8.0838 13.3038 8.04612 13.0322 8.02393C12.7488 8.00078 12.3766 8 11.8 8H4.2C3.62345 8 3.25118 8.00078 2.96784 8.02393ZM21.0108 11.5001C21.563 11.5076 22.0046 11.9613 21.9971 12.5135C21.9882 13.1698 21.9593 13.8 21.673 14.362C21.3854 14.9265 20.9265 15.3854 20.362 15.673C19.8001 15.9593 19.1698 15.9882 18.5136 15.9971C17.9613 16.0046 17.5076 15.563 17.5001 15.0108C17.4926 14.4585 17.9342 14.0048 18.4865 13.9973C19.1803 13.9879 19.3606 13.9386 19.454 13.891C19.6422 13.7951 19.7951 13.6422 19.891 13.454C19.9386 13.3606 19.9879 13.1803 19.9973 12.4864C20.0048 11.9342 20.4585 11.4926 21.0108 11.5001Z" fill="#3B5881"/>
</svg>
