<svg width="20" height="20" viewBox="0 0 20 20" fill="none" xmlns="http://www.w3.org/2000/svg">
<path fill-rule="evenodd" clip-rule="evenodd" d="M13.3333 0V2.22222H20V4.44444H0V2.22222H6.66667V0H13.3333ZM2.87306 19.3957C2.45631 19.0087 2.22222 18.4838 2.22222 17.9365V5.55556H17.7778V17.9365C17.7778 18.4838 17.5437 19.0087 17.1269 19.3957C16.7102 19.7826 16.1449 20 15.5556 20H4.44443C3.85506 20 3.28981 19.7826 2.87306 19.3957ZM15.5556 7.77778H4.44443V17.7778H15.5556V7.77778ZM8.88889 8.88889H6.66667V16.6667H8.88889V8.88889ZM11.1111 8.88889H13.3333V16.6667H11.1111V8.88889Z" fill="#3B5881"/>
</svg>
