<svg width="101" height="119" viewBox="0 0 101 119" fill="none" xmlns="http://www.w3.org/2000/svg">
<g clip-path="url(#clip0_19631_27767)">
<mask id="mask0_19631_27767" style="mask-type:luminance" maskUnits="userSpaceOnUse" x="2" y="0" width="96" height="117">
<path d="M2.96875 0H97.6015V100.875C97.6015 109.712 90.4381 116.875 81.6015 116.875H2.96875V0Z" fill="white"/>
</mask>
<g mask="url(#mask0_19631_27767)">
<path d="M98.6015 100.875C98.6015 110.264 90.9904 117.875 81.6015 117.875H2.96875V115.875H81.6015C89.8858 115.875 96.6015 109.159 96.6015 100.875H98.6015ZM98.6015 0V100.875C98.6015 110.264 90.9904 117.875 81.6015 117.875V115.875C89.8858 115.875 96.6015 109.159 96.6015 100.875V0H98.6015Z" fill="#F7C234"/>
</g>
<path d="M100.067 0H95.1719V48.875H100.067V0Z" fill="#F7C234"/>
<path d="M2.5 119C1.11929 119 0 117.881 0 116.5C0 115.119 1.11929 114 2.5 114C3.88071 114 5 115.119 5 116.5C5 117.881 3.88071 119 2.5 119Z" fill="#F7C234"/>
</g>
<defs>
<clipPath id="clip0_19631_27767">
<rect width="101" height="119" fill="white"/>
</clipPath>
</defs>
</svg>
