<svg width="24" height="26" viewBox="0 0 24 26" fill="none" xmlns="http://www.w3.org/2000/svg">
<path fill-rule="evenodd" clip-rule="evenodd" d="M15.1947 18.1921C15.2902 18.292 15.3664 18.4116 15.4188 18.5437C15.4712 18.6759 15.4988 18.8181 15.5 18.9619C15.5011 19.1058 15.4758 19.2484 15.4255 19.3815C15.3753 19.5147 15.301 19.6356 15.2071 19.7374C15.1132 19.8391 15.0016 19.9195 14.8787 19.974C14.7558 20.0285 14.6241 20.0559 14.4913 20.0546C14.3585 20.0534 14.2273 20.0235 14.1053 19.9667C13.9833 19.9099 13.873 19.8274 13.7807 19.7239L8.78071 14.3073C8.59324 14.1041 8.48792 13.8286 8.48792 13.5413C8.48792 13.2541 8.59324 12.9786 8.78071 12.7754L13.7807 7.35768C13.9682 7.1544 14.2226 7.04014 14.4879 7.04004C14.6192 7.03999 14.7493 7.06797 14.8706 7.12237C14.992 7.17678 15.1023 7.25655 15.1952 7.35713C15.2881 7.45772 15.3618 7.57714 15.4121 7.70858C15.4625 7.84002 15.4884 7.98091 15.4884 8.12321C15.4885 8.41059 15.3832 8.68623 15.1957 8.88951L10.9017 13.5413L15.1947 18.1921Z" fill="#3A3A47"/>
</svg>
