<svg width="24" height="26" viewBox="0 0 24 26" fill="none" xmlns="http://www.w3.org/2000/svg">
<path fill-rule="evenodd" clip-rule="evenodd" d="M8.80529 18.1921C8.70978 18.292 8.63359 18.4116 8.58119 18.5437C8.52878 18.6759 8.50119 18.8181 8.50004 18.9619C8.49888 19.1058 8.52418 19.2484 8.57446 19.3815C8.62475 19.5147 8.699 19.6356 8.79289 19.7374C8.88678 19.8391 8.99844 19.9195 9.12133 19.974C9.24423 20.0285 9.37591 20.0559 9.50869 20.0546C9.64147 20.0534 9.77269 20.0235 9.89469 19.9667C10.0167 19.9099 10.127 19.8274 10.2193 19.7239L15.2193 14.3073C15.4068 14.1041 15.5121 13.8286 15.5121 13.5413C15.5121 13.2541 15.4068 12.9786 15.2193 12.7754L10.2193 7.35768C10.0318 7.1544 9.77741 7.04014 9.51214 7.04004C9.38079 7.03999 9.25072 7.06797 9.12935 7.12237C9.00799 7.17678 8.8977 7.25655 8.80479 7.35713C8.71188 7.45772 8.63816 7.57714 8.58786 7.70858C8.53755 7.84002 8.51163 7.98092 8.51159 8.12321C8.51149 8.41059 8.61678 8.68623 8.80429 8.88951L13.0983 13.5413L8.80529 18.1921Z" fill="#3A3A47"/>
</svg>
