<svg xmlns="http://www.w3.org/2000/svg" width="1em" height="1em" viewBox="0 0 24 24">
	<path d="M0 0h24v24H0z" fill="none" />
	<g fill="none" stroke="currentColor" stroke-width="1.5">
		<path d="M5.5 3c1.404 0 2.107 0 2.611.38c.219.163.406.374.552.62C9 4.567 9 5.357 9 6.938v10.125c0 1.58 0 2.37-.337 2.937a2.1 2.1 0 0 1-.552.62C7.607 21 6.904 21 5.5 21s-2.107 0-2.611-.38a2.1 2.1 0 0 1-.552-.62C2 19.433 2 18.642 2 17.063V6.938c0-1.58 0-2.37.337-2.938c.146-.246.333-.457.552-.62C3.393 3 4.096 3 5.5 3Z" />
		<path stroke-linecap="round" d="M20 11.938v5.124c0 1.58 0 2.37-.337 2.938a2.1 2.1 0 0 1-.552.62c-.504.38-1.207.38-2.611.38s-2.107 0-2.611-.38a2.1 2.1 0 0 1-.552-.62C13 19.433 13 18.642 13 17.063V6.938c0-1.58 0-2.37.337-2.938" />
		<path stroke-linecap="round" stroke-linejoin="round" d="m22 9l-6-6m6 0l-6 6" />
	</g>
</svg>
