<svg xmlns="http://www.w3.org/2000/svg" viewBox="0 0 32 32">
	<path fill="currentColor" d="m22.255 19.327l-1.017.13q-.914.123-1.375.383q-.78.44-.78 1.398q.002.727.533 1.146q.53.42 1.262.42q.888 0 1.72-.41c.938-.454 1.4-1.19 1.4-2.23V18.81c-.205.13-.47.23-.792.328q-.486.134-.95.19zm-14.22-1.054h4.31l-2.113-6.063zM28.168 7.75h-25c-.55 0-1 .448-1 1v16.583c0 .553.45 1 1 1h25c.554 0 1-.447 1-1V8.75a1 1 0 0 0-1-1M14.305 23.896l-1.433-4.11H7.488L6 23.897H4.094L9.262 10.17h2.1l4.98 13.727zm12.487.047c-.263.074-.46.12-.6.14a4 4 0 0 1-.56.028q-.87.001-1.262-.614c-.138-.22-.23-.525-.29-.926q-.514.675-1.477 1.17a4.6 4.6 0 0 1-2.12.492q-1.396.001-2.274-.844c-.59-.562-.885-1.27-.885-2.113q0-1.392.868-2.155q.869-.765 2.28-.942l2.68-.336q.584-.074.776-.484c.062-.146.103-.354.103-.646q-.001-.863-.604-1.252c-.41-.26-.99-.39-1.75-.39q-1.316.002-1.864.714q-.309.394-.4 1.174H17.85c.03-1.237.438-2.097 1.2-2.582c.77-.484 1.658-.726 2.673-.726q1.763 0 2.864.673q1.094.672 1.093 2.093v5.766c0 .176.035.313.106.422q.107.156.452.156q.114 0 .254-.015c.093-.01.19-.02.3-.04z" />
</svg>
