<svg width="73" height="24" viewBox="0 0 73 24" fill="none" xmlns="http://www.w3.org/2000/svg">
<path d="M1.25555 4.06847V6.17716H0.0876465V0.152344H2.36507C2.74614 0.161499 3.12223 0.243215 3.47452 0.393351C3.80808 0.549303 4.09168 0.800094 4.29207 1.11634C4.45767 1.42991 4.53837 1.78371 4.52566 2.14056C4.54948 2.4036 4.50843 2.66856 4.40634 2.91084C4.30424 3.15311 4.14441 3.36483 3.94171 3.52626C3.48044 3.90941 2.89788 4.10258 2.30662 4.06847H1.25555ZM1.25555 3.04428H2.36507C2.49162 3.05536 2.61897 3.03968 2.73945 2.99825C2.85993 2.95681 2.97099 2.89047 3.06578 2.80328C3.15632 2.72257 3.22535 2.6193 3.26623 2.50329C3.30712 2.38728 3.31852 2.26241 3.29938 2.14056C3.31934 2.00927 3.30891 1.87496 3.26901 1.7486C3.22912 1.62225 3.16086 1.50739 3.06978 1.41342C2.9787 1.31945 2.86741 1.24903 2.74494 1.20786C2.62247 1.1667 2.49232 1.15598 2.36507 1.17657H1.25555V3.04428Z" fill="#A6B6BD"/>
<path d="M10.0726 3.28557C10.0872 3.83 9.96663 4.36927 9.72227 4.85204C9.55079 5.26739 9.26695 5.62295 8.90473 5.87623C8.49765 6.12157 8.03297 6.24666 7.56161 6.23774C7.10965 6.23873 6.66584 6.11382 6.27694 5.87623C5.89949 5.62412 5.59647 5.26984 5.40102 4.85204C5.20973 4.37433 5.11056 3.86271 5.10904 3.34584V3.0446C5.10441 2.50761 5.20367 1.97504 5.40102 1.47812C5.61313 1.07202 5.91281 0.721604 6.27694 0.453898C6.66584 0.216311 7.10965 0.0914374 7.56161 0.0924235C8.01477 0.0817618 8.46118 0.207348 8.84635 0.453898C9.24038 0.68558 9.54853 1.04591 9.72227 1.47812C9.96663 1.9609 10.0872 2.50016 10.0726 3.0446V3.28557ZM8.84635 3.0446C8.88915 2.53578 8.76583 2.0268 8.49599 1.59863C8.39058 1.44532 8.2502 1.32114 8.08725 1.23708C7.9243 1.15302 7.74373 1.11167 7.56161 1.11665C7.37784 1.09946 7.19309 1.13547 7.02806 1.22061C6.86302 1.30574 6.72423 1.43664 6.6273 1.59863C6.41515 2.02659 6.31453 2.50412 6.33533 2.98433V3.28557C6.2946 3.78657 6.39605 4.289 6.6273 4.73154C6.73271 4.88485 6.87309 5.00899 7.03604 5.09305C7.19899 5.17711 7.37949 5.2185 7.56161 5.21352C7.74616 5.23832 7.93369 5.20569 8.10015 5.11982C8.26662 5.03395 8.40449 4.89875 8.49599 4.73154C8.75732 4.32197 8.88045 3.83493 8.84635 3.34584V3.0446Z" fill="#A6B6BD"/>
<path d="M15.385 4.42943L16.1441 0.152344H17.3118L16.0273 6.17637H14.8595L13.9253 2.1403L12.9328 6.17637H11.765L10.4805 0.152344H11.6482L12.4073 4.42943L13.3998 0.152344H14.3925L15.385 4.42943Z" fill="#A6B6BD"/>
<path d="M21.3995 3.52626H19.122V5.15297H21.8082V6.17716H17.8958V0.152344H21.8082V1.17657H19.122V2.62254H21.3995V3.52626Z" fill="#A6B6BD"/>
<path d="M24.5523 3.94796H23.6179V6.17711H22.3916V0.152295H24.5523C25.133 0.130311 25.7055 0.299106 26.1873 0.63431C26.3638 0.801941 26.5023 1.00758 26.5932 1.23664C26.684 1.46571 26.7249 1.71256 26.7129 1.95974C26.7389 2.3178 26.6573 2.67543 26.4793 2.98397C26.2754 3.2826 25.9912 3.51304 25.6617 3.64672L26.9465 6.11688H25.6617L24.5523 3.94796ZM23.6179 2.98397H24.6106C24.8466 2.99022 25.076 2.90415 25.253 2.743C25.3465 2.66204 25.4213 2.56048 25.4718 2.4458C25.5223 2.33112 25.5473 2.20619 25.545 2.08024C25.5408 1.83866 25.4586 1.60542 25.3114 1.41753C25.2077 1.32561 25.0868 1.25675 24.9562 1.21528C24.8255 1.17381 24.6881 1.16061 24.5523 1.17652H23.6179V2.98397Z" fill="#A6B6BD"/>
<path d="M31.0335 3.52626H28.7561V5.15297H31.4422V6.17716H27.5298V0.152344H31.4422V1.17657H28.7561V2.62254H31.0335V3.52626Z" fill="#A6B6BD"/>
<path d="M32.0837 6.17751V0.152698H33.8356C34.3253 0.144787 34.8086 0.269444 35.2371 0.514209C35.6322 0.76259 35.955 1.11646 36.1714 1.53844C36.416 1.99938 36.5371 2.51935 36.5218 3.04464V3.28561C36.5371 3.8109 36.416 4.33087 36.1714 4.79181C35.955 5.21379 35.6322 5.56766 35.2371 5.81604C34.8278 6.05586 34.3647 6.1805 33.894 6.17751H32.0837ZM33.2516 1.17692V5.15333H33.8356C34.0446 5.17259 34.2551 5.13872 34.4485 5.0547C34.6419 4.97068 34.8124 4.83904 34.9451 4.67131C35.2063 4.28428 35.3301 3.81614 35.2955 3.34588V3.04464C35.3296 2.55555 35.2064 2.06847 34.9451 1.6589C34.816 1.48692 34.646 1.35222 34.4516 1.26779C34.2573 1.18336 34.0451 1.15206 33.8356 1.17692H33.2516Z" fill="#A6B6BD"/>
<path d="M39.2656 6.17765V0.152837H41.3095C41.8639 0.129298 42.4126 0.276083 42.8861 0.574581C43.0642 0.71796 43.2091 0.900541 43.3101 1.109C43.4111 1.31745 43.4657 1.54653 43.47 1.77954C43.4638 2.05787 43.383 2.32898 43.2365 2.56276C43.0804 2.80627 42.8564 2.99532 42.5941 3.10501C42.8709 3.14929 43.1213 3.29995 43.2949 3.52676C43.4763 3.76894 43.5785 4.06425 43.5869 4.37021C43.6031 4.61787 43.5641 4.8661 43.473 5.09584C43.3819 5.32558 43.2411 5.53076 43.0613 5.69568C42.6074 6.04335 42.0489 6.21408 41.4847 6.17765H39.2656ZM40.4335 2.68327H41.3095C41.9518 2.68327 42.2438 2.44227 42.2438 1.96028C42.2582 1.84762 42.2443 1.73303 42.2033 1.62753C42.1624 1.52202 42.0959 1.42914 42.0102 1.3578C41.7995 1.22633 41.5553 1.16336 41.3095 1.17706H40.4335V2.68327ZM40.4335 3.52676V5.15346H41.4847C41.7121 5.16662 41.9375 5.10316 42.127 4.97269C42.2087 4.89799 42.2724 4.80463 42.313 4.70002C42.3535 4.59542 42.3699 4.48246 42.3606 4.37021C42.3606 3.82797 42.127 3.587 41.5431 3.52676H40.4335Z" fill="#A6B6BD"/>
<path d="M46.1556 2.86351L47.3818 0.152344H48.6665L46.7979 4.00824V6.17716H45.5716V4.00824L43.6445 0.152344H44.9876L46.1556 2.86351Z" fill="#A6B6BD"/>
<path d="M32.4248 11.793H41.7141V14.6863H35.6673V16.6754H41.1007V19.4783H35.6673V23.7279H32.4248V11.793Z" fill="#A6B6BD"/>
<path d="M49.0758 23.999C48.2386 23.9969 47.4081 23.8439 46.6219 23.5469C45.8807 23.2557 45.1975 22.8266 44.6063 22.2811C44.0141 21.7416 43.5621 21.0578 43.2918 20.2919C42.9334 19.4998 42.7537 18.6343 42.766 17.7603C42.7546 16.9154 42.9346 16.0794 43.2918 15.319C43.5641 14.5762 43.9817 13.899 44.5187 13.3299C45.7672 12.2226 47.3428 11.5851 48.988 11.5216C49.9115 11.5174 50.8294 11.6701 51.7048 11.9736C52.445 12.3071 53.1261 12.7655 53.7204 13.3299L51.7924 15.5903C51.4402 15.2373 51.023 14.9607 50.5655 14.7766C50.0894 14.592 49.5843 14.5 49.0758 14.5053C48.6522 14.4989 48.2327 14.5917 47.8488 14.7766C47.5008 14.9351 47.1988 15.1844 46.9725 15.4999C46.6903 15.7919 46.4537 16.1274 46.2714 16.4944C46.164 16.9076 46.1052 17.3326 46.0961 17.7603C46.1052 18.188 46.164 18.6129 46.2714 19.0261C46.4317 19.4328 46.6703 19.8019 46.9725 20.1111C47.2365 20.4031 47.5682 20.6209 47.9365 20.744C48.3515 20.9279 48.7993 21.0203 49.251 21.0152C49.8905 21.0173 50.5213 20.8623 51.0913 20.5632V19.1165H48.8128V16.6753H54.1585V22.0098C53.4936 22.5658 52.756 23.0224 51.9677 23.3661C51.0463 23.7365 50.0645 23.9207 49.0758 23.9086" fill="#A6B6BD"/>
<path d="M54.947 11.793H58.5401L61.1691 19.3879L63.7982 11.793H67.3036L62.6589 23.7279H59.6793L54.947 11.793Z" fill="#A6B6BD"/>
<path fill-rule="evenodd" clip-rule="evenodd" d="M16.563 15.6809L20.5066 11.793H29.533L21.9087 19.1167L16.563 15.6809Z" fill="#A6B6BD"/>
<path fill-rule="evenodd" clip-rule="evenodd" d="M0 11.793H9.28932L19.2797 23.7279H10.078L0 11.793Z" fill="#A6B6BD"/>
</svg>
