<svg width="218" height="53" viewBox="0 0 218 53" fill="none" xmlns="http://www.w3.org/2000/svg">
<path d="M0.888 53H31.704C40.632 53 46.68 45.8 46.68 38.024C46.68 29.384 40.632 23.048 31.704 23.048H15.864C11.4 23.048 8.376 20.024 8.376 15.56C8.376 11.096 11.4 8.072 15.864 8.072H42.216V0.583997H15C6.072 0.583997 0.0240002 7.64 0.0240002 15.56C0.0240002 24.2 6.072 30.536 15 30.536H30.84C35.304 30.536 38.328 33.56 38.328 38.024C38.328 42.488 35.304 45.512 30.84 45.512H0.888V53ZM53.9976 53H62.3496V14.408L80.6376 31.976L98.9256 14.408V53H107.278V0.583997H101.662L80.6376 21.464L59.7576 0.583997H53.9976V53ZM113.036 53H121.532L124.556 45.512H153.932L157.1 53H165.452L142.988 0.583997H135.5L113.036 53ZM127.724 38.024L139.244 10.376L150.764 38.024H127.724ZM171.209 53H217.289V45.512H179.705V30.536H216.713V23.048H179.705V8.072H217.289V0.583997H171.209V53Z" fill="#F7C234"/>
</svg>
