<svg width="24" height="24" viewBox="0 0 24 24" fill="none" xmlns="http://www.w3.org/2000/svg">
<ellipse cx="11.9999" cy="21" rx="10" ry="3" fill="url(#paint0_radial_11000_48487)" fill-opacity="0.2"/>
<path d="M11.9999 20.309C9.5208 17.929 7.66382 15.8037 6.41609 13.9321C5.10609 11.9672 4.49994 10.3298 4.49994 9C4.49994 7.01088 5.29012 5.10322 6.69664 3.6967C8.10316 2.29018 10.0108 1.5 11.9999 1.5C13.9891 1.5 15.8967 2.29018 17.3032 3.6967C18.7098 5.10322 19.4999 7.01088 19.4999 9C19.4999 10.3298 18.8938 11.9672 17.5838 13.9321C16.3361 15.8037 14.4791 17.929 11.9999 20.309ZM11.9999 12.5C12.9282 12.5 13.8184 12.1313 14.4748 11.4749C15.1312 10.8185 15.4999 9.92826 15.4999 9C15.4999 8.07174 15.1312 7.1815 14.4748 6.52513C13.8184 5.86875 12.9282 5.5 11.9999 5.5C11.0717 5.5 10.1814 5.86875 9.52506 6.52513C8.86869 7.1815 8.49994 8.07174 8.49994 9C8.49994 9.92826 8.86869 10.8185 9.52506 11.4749C10.1814 12.1313 11.0717 12.5 11.9999 12.5Z" stroke="#F2890D"/>
<defs>
<radialGradient id="paint0_radial_11000_48487" cx="0" cy="0" r="1" gradientUnits="userSpaceOnUse" gradientTransform="translate(11.9999 21) rotate(90) scale(3 10)">
<stop stop-color="#141C27"/>
<stop offset="1" stop-color="#152741" stop-opacity="0"/>
</radialGradient>
</defs>
</svg>
