<svg width="24" height="24" viewBox="0 0 24 24" fill="none" xmlns="http://www.w3.org/2000/svg">
<path fill-rule="evenodd" clip-rule="evenodd" d="M11.9999 21C6.66694 15.946 3.99994 11.946 3.99994 9C3.99994 6.87827 4.84279 4.84344 6.34308 3.34315C7.84338 1.84285 9.87821 1 11.9999 1C14.1217 1 16.1565 1.84285 17.6568 3.34315C19.1571 4.84344 19.9999 6.87827 19.9999 9C19.9999 11.946 17.3329 15.946 11.9999 21ZM11.9999 12C12.7956 12 13.5587 11.6839 14.1213 11.1213C14.6839 10.5587 14.9999 9.79565 14.9999 9C14.9999 8.20435 14.6839 7.44129 14.1213 6.87868C13.5587 6.31607 12.7956 6 11.9999 6C11.2043 6 10.4412 6.31607 9.87862 6.87868C9.31601 7.44129 8.99994 8.20435 8.99994 9C8.99994 9.79565 9.31601 10.5587 9.87862 11.1213C10.4412 11.6839 11.2043 12 11.9999 12Z" fill="#152741"/>
</svg>
