<svg width="24" height="24" viewBox="0 0 24 24" fill="none" xmlns="http://www.w3.org/2000/svg">
<path d="M12 20.309C9.52086 17.929 7.66388 15.8037 6.41615 13.9321C5.10615 11.9672 4.5 10.3298 4.5 9C4.5 7.01088 5.29018 5.10322 6.6967 3.6967C8.10322 2.29018 10.0109 1.5 12 1.5C13.9891 1.5 15.8968 2.29018 17.3033 3.6967C18.7098 5.10322 19.5 7.01088 19.5 9C19.5 10.3298 18.8938 11.9672 17.5839 13.9321C16.3361 15.8037 14.4791 17.929 12 20.309ZM12 12.5C12.9283 12.5 13.8185 12.1313 14.4749 11.4749C15.1313 10.8185 15.5 9.92826 15.5 9C15.5 8.07174 15.1313 7.1815 14.4749 6.52513C13.8185 5.86875 12.9283 5.5 12 5.5C11.0717 5.5 10.1815 5.86875 9.52513 6.52513C8.86875 7.1815 8.5 8.07174 8.5 9C8.5 9.92826 8.86875 10.8185 9.52513 11.4749C10.1815 12.1313 11.0717 12.5 12 12.5Z" fill="#EE3B2B" stroke="#C2CED1"/>
</svg>
