<svg width="24" height="24" viewBox="0 0 24 24" fill="none" xmlns="http://www.w3.org/2000/svg">
<path d="M14.3925 2.81775C14.3519 2.65557 14.2582 2.51161 14.1264 2.40874C13.9946 2.30588 13.8322 2.25 13.665 2.25H10.335C10.1678 2.25 10.0054 2.30588 9.87362 2.40874C9.74181 2.51161 9.64815 2.65557 9.60752 2.81775L9.11252 4.80075C9.08809 4.89829 9.04429 4.98991 8.98373 5.07018C8.92318 5.15045 8.8471 5.21772 8.76002 5.268L7.79177 5.82825C7.70452 5.8786 7.60802 5.91087 7.50802 5.92311C7.40803 5.93535 7.30659 5.92732 7.20977 5.8995L5.24477 5.337C5.08382 5.29086 4.91205 5.29991 4.75683 5.3627C4.60161 5.4255 4.47187 5.53842 4.38827 5.6835L2.72402 8.5665C2.64038 8.71137 2.60757 8.88004 2.63081 9.0457C2.65405 9.21135 2.732 9.36449 2.85227 9.48075L4.32227 10.902C4.39463 10.9719 4.45217 11.0557 4.49147 11.1484C4.53077 11.241 4.55102 11.3406 4.55102 11.4413V12.5588C4.55112 12.6595 4.53092 12.7593 4.49161 12.852C4.45231 12.9448 4.39472 13.0287 4.32227 13.0988L2.85227 14.5192C2.73194 14.6357 2.65402 14.789 2.63092 14.9548C2.60781 15.1206 2.64085 15.2894 2.72477 15.4343L4.38827 18.3165C4.47195 18.4613 4.60161 18.574 4.75666 18.6366C4.91171 18.6992 5.08325 18.7083 5.24402 18.6622L7.20152 18.1027C7.30079 18.0743 7.40485 18.0667 7.50719 18.0804C7.60953 18.0941 7.70795 18.1288 7.79627 18.1823L8.51852 18.6202C8.67069 18.7127 8.785 18.8563 8.84102 19.0253L9.57902 21.2377C9.62891 21.387 9.72449 21.5168 9.85223 21.6087C9.97997 21.7007 10.1334 21.7501 10.2908 21.75H13.7093C13.8667 21.75 14.0202 21.7005 14.148 21.6084C14.2757 21.5164 14.3713 21.3864 14.421 21.237L15.1575 19.0267C15.2142 18.8566 15.3299 18.7124 15.4838 18.6202L16.2203 18.18C16.3085 18.1272 16.4066 18.0931 16.5085 18.0798C16.6104 18.0665 16.714 18.0743 16.8128 18.1027L18.7553 18.6615C18.9161 18.7077 19.0879 18.6988 19.2431 18.6361C19.3983 18.5735 19.5281 18.4607 19.6118 18.3157L21.2783 15.4297C21.3614 15.2857 21.3943 15.118 21.3718 14.9532C21.3493 14.7884 21.2726 14.6357 21.1538 14.5192L19.704 13.0972C19.6329 13.0275 19.5764 12.9443 19.5377 12.8525C19.4991 12.7607 19.4791 12.6621 19.479 12.5625V11.4375C19.4791 11.3379 19.4991 11.2393 19.5377 11.1475C19.5764 11.0557 19.6329 10.9725 19.704 10.9027L21.1538 9.48075C21.2726 9.36429 21.3493 9.21163 21.3718 9.0468C21.3943 8.88197 21.3614 8.71433 21.2783 8.57025L19.6118 5.68425C19.5279 5.53945 19.3981 5.42683 19.2429 5.36432C19.0877 5.3018 18.9161 5.29298 18.7553 5.33925L16.8053 5.8995C16.7088 5.92733 16.6077 5.9355 16.5079 5.92352C16.4082 5.91154 16.3119 5.87965 16.2248 5.82975L15.2423 5.26725C15.1545 5.21711 15.0777 5.14974 15.0166 5.06919C14.9555 4.98863 14.9114 4.89656 14.8868 4.7985L14.3925 2.81775Z" stroke="#3B5881" stroke-width="1.5" stroke-linejoin="round"/>
<rect x="8.75" y="8.75" width="1.25" height="6.5" stroke="#3B5881"/>
<rect x="11.75" y="11" width="1.25" height="4.25" stroke="#3B5881"/>
<rect x="14.75" y="13.25" width="1.25" height="2" stroke="#3B5881"/>
</svg>
