<svg width="24" height="24" viewBox="0 0 24 24" fill="none" xmlns="http://www.w3.org/2000/svg">
<path d="M17.85 19.95L13.425 15.525L15.525 13.425L19.95 17.85C20.2333 18.1333 20.375 18.4833 20.375 18.9C20.375 19.3167 20.2333 19.6667 19.95 19.95C19.6667 20.2333 19.3167 20.375 18.9 20.375C18.4833 20.375 18.1333 20.2333 17.85 19.95ZM4.05 19.95C3.76667 19.6667 3.625 19.3167 3.625 18.9C3.625 18.4833 3.76667 18.1333 4.05 17.85L9.9 12L8.2 10.3C8.01667 10.4833 7.78334 10.575 7.5 10.575C7.21667 10.575 6.98334 10.4833 6.8 10.3L6.225 9.72501V11.975C6.225 12.2083 6.125 12.3667 5.925 12.45C5.725 12.5333 5.54167 12.4917 5.375 12.325L2.65 9.60001C2.48334 9.43334 2.44167 9.25001 2.525 9.05001C2.60834 8.85001 2.76667 8.75001 3 8.75001H5.25L4.7 8.20001C4.5 8.00001 4.4 7.76667 4.4 7.50001C4.4 7.23334 4.5 7.00001 4.7 6.80001L7.55 3.95001C7.88334 3.61667 8.24167 3.37501 8.625 3.22501C9.00834 3.07501 9.4 3.00001 9.8 3.00001C10.1333 3.00001 10.446 3.05001 10.738 3.15001C11.03 3.25001 11.3173 3.40001 11.6 3.60001C11.7333 3.68334 11.8043 3.80001 11.813 3.95001C11.8217 4.10001 11.7673 4.23334 11.65 4.35001L9.75 6.25001L10.3 6.80001C10.4833 6.98334 10.575 7.21667 10.575 7.50001C10.575 7.78334 10.4833 8.01667 10.3 8.20001L12 9.90001L14.25 7.65001C14.1833 7.46667 14.1293 7.27501 14.088 7.07501C14.0467 6.87501 14.0257 6.67501 14.025 6.47501C14.025 5.49167 14.3627 4.66234 15.038 3.98701C15.7133 3.31167 16.5423 2.97434 17.525 2.97501C17.6583 2.97501 17.7833 2.97934 17.9 2.98801C18.0167 2.99667 18.1333 3.01734 18.25 3.05001C18.4 3.10001 18.496 3.20434 18.538 3.36301C18.58 3.52167 18.5423 3.65901 18.425 3.77501L16.8 5.40001C16.7 5.50001 16.65 5.61667 16.65 5.75001C16.65 5.88334 16.7 6.00001 16.8 6.10001L17.9 7.20001C18 7.30001 18.1167 7.35001 18.25 7.35001C18.3833 7.35001 18.5 7.30001 18.6 7.20001L20.225 5.57501C20.3417 5.45834 20.4793 5.41667 20.638 5.45001C20.7967 5.48334 20.9007 5.58334 20.95 5.75001C20.9833 5.86667 21.0043 5.98334 21.013 6.10001C21.0217 6.21667 21.0257 6.34167 21.025 6.47501C21.025 7.45834 20.6877 8.28734 20.013 8.96201C19.3383 9.63667 18.509 9.97434 17.525 9.97501C17.325 9.97501 17.125 9.95834 16.925 9.92501C16.725 9.89167 16.5333 9.83334 16.35 9.75001L6.15 19.95C5.86667 20.2333 5.51667 20.375 5.1 20.375C4.68334 20.375 4.33334 20.2333 4.05 19.95Z" fill="#3B5881"/>
</svg>
