<svg width="48" height="48" viewBox="0 0 48 48" fill="none" xmlns="http://www.w3.org/2000/svg">
<g clip-path="url(#clip0_19900_48366)">
<path d="M43.3125 0H4.6875C2.09867 0 0 2.09867 0 4.6875V43.3125C0 45.9013 2.09867 48 4.6875 48H43.3125C45.9013 48 48 45.9013 48 43.3125V4.6875C48 2.09867 45.9013 0 43.3125 0Z" fill="#152741"/>
<path d="M42.291 26.9934C40.9823 35.4565 33.9779 42.0353 25.3225 42.6806V48.0001H22.689V40.2099L22.6891 40.1549C23.0962 40.1859 23.5074 40.2017 23.9224 40.2017C31.8099 40.2017 38.3726 34.5056 39.7244 26.9934H42.291ZM7.59457 22.8698H7.91327C7.88142 23.2835 7.86511 23.7015 7.86511 24.1233C7.86512 32.1052 13.6723 38.7248 21.2828 39.9854V42.5467C12.6894 41.3237 5.98881 34.2173 5.37937 25.4316H0V22.8697H7.59457V22.8698ZM24.1064 11.1449C31.1986 11.2348 36.9202 17.0185 36.9202 24.1402C36.9202 31.3178 31.1082 37.1366 23.9387 37.1366L23.7709 37.1355C16.6786 37.0456 10.957 31.2618 10.957 24.1402C10.957 16.9625 16.7692 11.1438 23.9387 11.1438L24.1064 11.1449ZM23.9387 13.675C18.1698 13.675 13.4883 18.3577 13.4883 24.1402C13.4883 29.9227 18.1698 34.6054 23.9387 34.6054C29.7075 34.6054 34.3889 29.9227 34.3889 24.1402C34.3889 18.3577 29.7075 13.675 23.9387 13.675ZM26.7207 5.72315C35.2858 7.01783 41.9345 14.1637 42.4749 22.9634H48.0002V25.622L40.0338 25.5879V25.5875H39.9137C39.9572 25.1052 39.9795 24.6169 39.9795 24.1233C39.9795 16.1971 34.253 9.61416 26.7207 8.28846V5.72315ZM25.3145 7.97553H25.3144V8.10471C24.8556 8.06526 24.3913 8.04492 23.9224 8.04492C15.9611 8.04492 9.34971 13.8477 8.08383 21.4639H5.52246C6.75337 12.8518 13.8738 6.14207 22.668 5.55542L22.6891 0H25.3446L25.3145 7.97553Z" fill="#F7C234"/>
<path d="M23.8252 30.2675C22.8114 30.1932 17.3321 24.0571 17.332 23.4767C17.3612 22.519 19.7092 22.0257 20.0278 22.1998C20.3465 22.3739 23.8252 25.4211 23.8252 25.4211C27.9712 21.0085 33.7687 14.0559 34.6085 14.5094C35.1311 14.9139 24.9276 29.9766 23.8252 30.2675Z" fill="white"/>
</g>
<defs>
<clipPath id="clip0_19900_48366">
<rect width="48" height="48" fill="white"/>
</clipPath>
</defs>
</svg>
