<svg width="512" height="512" viewBox="0 0 512 512" fill="none" xmlns="http://www.w3.org/2000/svg">
<g clip-path="url(#clip0_19819_27534)">
<path d="M451.104 287.93C437.145 378.203 362.431 448.376 270.107 455.26V512.001H242.016V428.906L242.017 428.319C246.359 428.65 250.746 428.818 255.172 428.818C339.306 428.818 409.308 368.06 423.727 287.93H451.104ZM81.0088 243.945H84.4082C84.0685 248.357 83.8945 252.816 83.8945 257.315C83.8946 342.455 145.838 413.065 227.016 426.511V453.831C135.354 440.786 63.8806 364.985 57.3799 271.27H0V243.943H81.0088V243.945ZM257.135 118.879C332.785 119.838 393.815 181.531 393.815 257.495C393.815 334.057 331.821 396.124 255.346 396.124L253.556 396.112C177.905 395.153 116.875 333.459 116.875 257.495C116.875 180.933 178.871 118.867 255.346 118.867L257.135 118.879ZM255.346 145.867C193.811 145.867 143.875 195.816 143.875 257.495C143.875 319.175 193.811 369.124 255.346 369.124C316.88 369.124 366.815 319.175 366.815 257.495C366.815 195.816 316.88 145.867 255.346 145.867ZM285.021 61.0469C376.381 74.8568 447.301 151.079 453.066 244.943H512.002V273.301L427.027 272.938V272.933H425.746C426.21 267.789 426.448 262.58 426.448 257.315C426.448 172.769 365.365 102.551 285.021 88.4102V61.0469ZM270.021 85.0723H270.02V86.4502C265.126 86.0294 260.174 85.8125 255.172 85.8125C170.252 85.8125 99.7302 147.709 86.2275 228.948H58.9062C72.036 137.086 147.987 65.5154 241.792 59.2578L242.017 0H270.342L270.021 85.0723Z" fill="#152741"/>
<path d="M254.151 322.87C243.338 322.078 184.892 256.626 184.891 250.435C185.202 240.22 210.248 234.958 213.646 236.815C217.045 238.672 254.151 271.175 254.151 271.175C298.376 224.108 360.216 149.947 369.173 154.784C374.748 159.099 265.91 319.767 254.151 322.87Z" fill="#F7C234"/>
</g>
<defs>
<clipPath id="clip0_19819_27534">
<rect width="512" height="512" fill="white"/>
</clipPath>
</defs>
</svg>
